<svg width="32" height="32" viewBox="0 0 32 32" fill="none" xmlns="http://www.w3.org/2000/svg">
  <!-- Background circle -->
  <circle cx="16" cy="16" r="16" fill="#1E40AF"/>
  
  <!-- Shield shape -->
  <path d="M16 5L21 8V16C21 20.5 16 24 16 24S11 20.5 11 16V8L16 5Z" fill="#3B82F6"/>
  
  <!-- Inner shield -->
  <path d="M16 7L19 9V16C19 19 16 21 16 21S13 19 13 16V9L16 7Z" fill="#60A5FA"/>
  
  <!-- Bitcoin symbol -->
  <path d="M16 10C17.7 10 19 11.3 19 13C19 14.7 17.7 16 16 16C14.3 16 13 14.7 13 13C13 11.3 14.3 10 16 10ZM16 11C15.4 11 15 11.4 15 13C15 13.6 15.4 14 16 14C16.6 14 17 13.6 17 13C17 11.4 16.6 11 16 11Z" fill="white"/>
  
  <!-- Dollar sign -->
  <path d="M15 12H17V13H15V12ZM15 14H17V15H15V14Z" fill="white"/>
  
  <!-- Lightning bolt -->
  <path d="M15 18L16 17L17 18L16 19L15 18Z" fill="#FCD34D"/>
</svg>
