<svg width="40" height="40" viewBox="0 0 40 40" fill="none" xmlns="http://www.w3.org/2000/svg">
  <!-- Background circle -->
  <circle cx="20" cy="20" r="20" fill="#1E40AF"/>
  
  <!-- Shield shape -->
  <path d="M20 6L26 10V20C26 25.5 20 30 20 30S14 25.5 14 20V10L20 6Z" fill="#3B82F6"/>
  
  <!-- Inner shield -->
  <path d="M20 9L24 12V20C24 23.5 20 26.5 20 26.5S16 23.5 16 20V12L20 9Z" fill="#60A5FA"/>
  
  <!-- Bitcoin symbol -->
  <path d="M20 12C22.2 12 24 13.8 24 16C24 18.2 22.2 20 20 20C17.8 20 16 18.2 16 16C16 13.8 17.8 12 20 12ZM20 14C18.9 14 18 14.9 18 16C18 17.1 18.9 18 20 18C21.1 18 22 17.1 22 16C22 14.9 21.1 14 20 14Z" fill="white"/>
  
  <!-- Dollar sign -->
  <path d="M18 15H22V16H18V15ZM18 17H22V18H18V17Z" fill="white"/>
  
  <!-- Lightning bolt -->
  <path d="M18 22L20 20L22 22L20 24L18 22Z" fill="#FCD34D"/>
</svg>
